{
 "cells": [
  {
   "cell_type": "code",
   "execution_count": 10,
   "id": "4aa1f0c3",
   "metadata": {},
   "outputs": [],
   "source": [
    "\"\"\"\n",
    "Imports\n",
    "\"\"\"\n",
    "import numpy as np\n",
    "import cv2\n",
    "import matplotlib.pyplot as plt\n",
    "from moviepy.editor import VideoFileClip"
   ]
  },
  {
   "cell_type": "code",
   "execution_count": 14,
   "id": "05e9203b",
   "metadata": {
    "scrolled": false
   },
   "outputs": [
    {
     "ename": "OSError",
     "evalue": "MoviePy error: failed to read the duration of file labeled/1.hevc.\nHere are the file infos returned by ffmpeg:\n\nffmpeg version 4.2.2 Copyright (c) 2000-2019 the FFmpeg developers\n  built with Apple clang version 11.0.0 (clang-1100.0.33.8)\n  configuration: --enable-gpl --enable-version3 --enable-sdl2 --enable-fontconfig --enable-gnutls --enable-iconv --enable-libass --enable-libdav1d --enable-libbluray --enable-libfreetype --enable-libmp3lame --enable-libopencore-amrnb --enable-libopencore-amrwb --enable-libopenjpeg --enable-libopus --enable-libshine --enable-libsnappy --enable-libsoxr --enable-libtheora --enable-libtwolame --enable-libvpx --enable-libwavpack --enable-libwebp --enable-libx264 --enable-libx265 --enable-libxml2 --enable-libzimg --enable-lzma --enable-zlib --enable-gmp --enable-libvidstab --enable-libvorbis --enable-libvo-amrwbenc --enable-libmysofa --enable-libspeex --enable-libxvid --enable-libaom --enable-appkit --enable-avfoundation --enable-coreimage --enable-audiotoolbox\n  libavutil      56. 31.100 / 56. 31.100\n  libavcodec     58. 54.100 / 58. 54.100\n  libavformat    58. 29.100 / 58. 29.100\n  libavdevice    58.  8.100 / 58.  8.100\n  libavfilter     7. 57.100 /  7. 57.100\n  libswscale      5.  5.100 /  5.  5.100\n  libswresample   3.  5.100 /  3.  5.100\n  libpostproc    55.  5.100 / 55.  5.100\nInput #0, hevc, from 'labeled/1.hevc':\n  Duration: N/A, bitrate: N/A\n    Stream #0:0: Video: hevc (Main), yuv420p(tv), 1164x874, 25 fps, 25 tbr, 1200k tbn, 25 tbc\nAt least one output file must be specified\n",
     "output_type": "error",
     "traceback": [
      "\u001b[0;31m---------------------------------------------------------------------------\u001b[0m",
      "\u001b[0;31mIndexError\u001b[0m                                Traceback (most recent call last)",
      "\u001b[0;32m~/opt/anaconda3/lib/python3.9/site-packages/moviepy/video/io/ffmpeg_reader.py\u001b[0m in \u001b[0;36mffmpeg_parse_infos\u001b[0;34m(filename, print_infos, check_duration, fps_source)\u001b[0m\n\u001b[1;32m    285\u001b[0m             \u001b[0mline\u001b[0m \u001b[0;34m=\u001b[0m \u001b[0;34m[\u001b[0m\u001b[0ml\u001b[0m \u001b[0;32mfor\u001b[0m \u001b[0ml\u001b[0m \u001b[0;32min\u001b[0m \u001b[0mlines\u001b[0m \u001b[0;32mif\u001b[0m \u001b[0mkeyword\u001b[0m \u001b[0;32min\u001b[0m \u001b[0ml\u001b[0m\u001b[0;34m]\u001b[0m\u001b[0;34m[\u001b[0m\u001b[0mindex\u001b[0m\u001b[0;34m]\u001b[0m\u001b[0;34m\u001b[0m\u001b[0;34m\u001b[0m\u001b[0m\n\u001b[0;32m--> 286\u001b[0;31m             \u001b[0mmatch\u001b[0m \u001b[0;34m=\u001b[0m \u001b[0mre\u001b[0m\u001b[0;34m.\u001b[0m\u001b[0mfindall\u001b[0m\u001b[0;34m(\u001b[0m\u001b[0;34m\"([0-9][0-9]:[0-9][0-9]:[0-9][0-9].[0-9][0-9])\"\u001b[0m\u001b[0;34m,\u001b[0m \u001b[0mline\u001b[0m\u001b[0;34m)\u001b[0m\u001b[0;34m[\u001b[0m\u001b[0;36m0\u001b[0m\u001b[0;34m]\u001b[0m\u001b[0;34m\u001b[0m\u001b[0;34m\u001b[0m\u001b[0m\n\u001b[0m\u001b[1;32m    287\u001b[0m             \u001b[0mresult\u001b[0m\u001b[0;34m[\u001b[0m\u001b[0;34m'duration'\u001b[0m\u001b[0;34m]\u001b[0m \u001b[0;34m=\u001b[0m \u001b[0mcvsecs\u001b[0m\u001b[0;34m(\u001b[0m\u001b[0mmatch\u001b[0m\u001b[0;34m)\u001b[0m\u001b[0;34m\u001b[0m\u001b[0;34m\u001b[0m\u001b[0m\n",
      "\u001b[0;31mIndexError\u001b[0m: list index out of range",
      "\nDuring handling of the above exception, another exception occurred:\n",
      "\u001b[0;31mOSError\u001b[0m                                   Traceback (most recent call last)",
      "\u001b[0;32m/var/folders/87/245szmns7h9dcjvxqxy17bf80000gn/T/ipykernel_2010/2235034342.py\u001b[0m in \u001b[0;36m<module>\u001b[0;34m\u001b[0m\n\u001b[1;32m      6\u001b[0m \u001b[0;32mfor\u001b[0m \u001b[0mvideo_file\u001b[0m\u001b[0;34m,\u001b[0m \u001b[0mlabel_file\u001b[0m \u001b[0;32min\u001b[0m \u001b[0mzip\u001b[0m\u001b[0;34m(\u001b[0m\u001b[0mlabeled_videos\u001b[0m\u001b[0;34m,\u001b[0m \u001b[0mlabeled_labels\u001b[0m\u001b[0;34m)\u001b[0m\u001b[0;34m:\u001b[0m\u001b[0;34m\u001b[0m\u001b[0;34m\u001b[0m\u001b[0m\n\u001b[1;32m      7\u001b[0m     \u001b[0;31m# Load video frames\u001b[0m\u001b[0;34m\u001b[0m\u001b[0;34m\u001b[0m\u001b[0m\n\u001b[0;32m----> 8\u001b[0;31m     \u001b[0mvideo_frames\u001b[0m \u001b[0;34m=\u001b[0m \u001b[0mload_video_frames\u001b[0m\u001b[0;34m(\u001b[0m\u001b[0mvideo_file\u001b[0m\u001b[0;34m)\u001b[0m\u001b[0;34m\u001b[0m\u001b[0;34m\u001b[0m\u001b[0m\n\u001b[0m\u001b[1;32m      9\u001b[0m \u001b[0;34m\u001b[0m\u001b[0m\n\u001b[1;32m     10\u001b[0m     \u001b[0;31m# Load labels\u001b[0m\u001b[0;34m\u001b[0m\u001b[0;34m\u001b[0m\u001b[0m\n",
      "\u001b[0;32m/var/folders/87/245szmns7h9dcjvxqxy17bf80000gn/T/ipykernel_2010/3805317381.py\u001b[0m in \u001b[0;36mload_video_frames\u001b[0;34m(video_file)\u001b[0m\n\u001b[1;32m      1\u001b[0m \u001b[0;32mdef\u001b[0m \u001b[0mload_video_frames\u001b[0m\u001b[0;34m(\u001b[0m\u001b[0mvideo_file\u001b[0m\u001b[0;34m)\u001b[0m\u001b[0;34m:\u001b[0m\u001b[0;34m\u001b[0m\u001b[0;34m\u001b[0m\u001b[0m\n\u001b[0;32m----> 2\u001b[0;31m     \u001b[0mvideo\u001b[0m \u001b[0;34m=\u001b[0m \u001b[0mVideoFileClip\u001b[0m\u001b[0;34m(\u001b[0m\u001b[0mvideo_file\u001b[0m\u001b[0;34m)\u001b[0m\u001b[0;34m\u001b[0m\u001b[0;34m\u001b[0m\u001b[0m\n\u001b[0m\u001b[1;32m      3\u001b[0m     \u001b[0mframes\u001b[0m \u001b[0;34m=\u001b[0m \u001b[0mlist\u001b[0m\u001b[0;34m(\u001b[0m\u001b[0mvideo\u001b[0m\u001b[0;34m.\u001b[0m\u001b[0miter_frames\u001b[0m\u001b[0;34m(\u001b[0m\u001b[0;34m)\u001b[0m\u001b[0;34m)\u001b[0m\u001b[0;34m\u001b[0m\u001b[0;34m\u001b[0m\u001b[0m\n\u001b[1;32m      4\u001b[0m     \u001b[0mvideo\u001b[0m\u001b[0;34m.\u001b[0m\u001b[0mclose\u001b[0m\u001b[0;34m(\u001b[0m\u001b[0;34m)\u001b[0m\u001b[0;34m\u001b[0m\u001b[0;34m\u001b[0m\u001b[0m\n\u001b[1;32m      5\u001b[0m     \u001b[0;32mreturn\u001b[0m \u001b[0mframes\u001b[0m\u001b[0;34m\u001b[0m\u001b[0;34m\u001b[0m\u001b[0m\n",
      "\u001b[0;32m~/opt/anaconda3/lib/python3.9/site-packages/moviepy/video/io/VideoFileClip.py\u001b[0m in \u001b[0;36m__init__\u001b[0;34m(self, filename, has_mask, audio, audio_buffersize, target_resolution, resize_algorithm, audio_fps, audio_nbytes, verbose, fps_source)\u001b[0m\n\u001b[1;32m     86\u001b[0m         \u001b[0;31m# Make a reader\u001b[0m\u001b[0;34m\u001b[0m\u001b[0;34m\u001b[0m\u001b[0m\n\u001b[1;32m     87\u001b[0m         \u001b[0mpix_fmt\u001b[0m \u001b[0;34m=\u001b[0m \u001b[0;34m\"rgba\"\u001b[0m \u001b[0;32mif\u001b[0m \u001b[0mhas_mask\u001b[0m \u001b[0;32melse\u001b[0m \u001b[0;34m\"rgb24\"\u001b[0m\u001b[0;34m\u001b[0m\u001b[0;34m\u001b[0m\u001b[0m\n\u001b[0;32m---> 88\u001b[0;31m         self.reader = FFMPEG_VideoReader(filename, pix_fmt=pix_fmt,\n\u001b[0m\u001b[1;32m     89\u001b[0m                                          \u001b[0mtarget_resolution\u001b[0m\u001b[0;34m=\u001b[0m\u001b[0mtarget_resolution\u001b[0m\u001b[0;34m,\u001b[0m\u001b[0;34m\u001b[0m\u001b[0;34m\u001b[0m\u001b[0m\n\u001b[1;32m     90\u001b[0m                                          \u001b[0mresize_algo\u001b[0m\u001b[0;34m=\u001b[0m\u001b[0mresize_algorithm\u001b[0m\u001b[0;34m,\u001b[0m\u001b[0;34m\u001b[0m\u001b[0;34m\u001b[0m\u001b[0m\n",
      "\u001b[0;32m~/opt/anaconda3/lib/python3.9/site-packages/moviepy/video/io/ffmpeg_reader.py\u001b[0m in \u001b[0;36m__init__\u001b[0;34m(self, filename, print_infos, bufsize, pix_fmt, check_duration, target_resolution, resize_algo, fps_source)\u001b[0m\n\u001b[1;32m     33\u001b[0m         \u001b[0mself\u001b[0m\u001b[0;34m.\u001b[0m\u001b[0mfilename\u001b[0m \u001b[0;34m=\u001b[0m \u001b[0mfilename\u001b[0m\u001b[0;34m\u001b[0m\u001b[0;34m\u001b[0m\u001b[0m\n\u001b[1;32m     34\u001b[0m         \u001b[0mself\u001b[0m\u001b[0;34m.\u001b[0m\u001b[0mproc\u001b[0m \u001b[0;34m=\u001b[0m \u001b[0;32mNone\u001b[0m\u001b[0;34m\u001b[0m\u001b[0;34m\u001b[0m\u001b[0m\n\u001b[0;32m---> 35\u001b[0;31m         infos = ffmpeg_parse_infos(filename, print_infos, check_duration,\n\u001b[0m\u001b[1;32m     36\u001b[0m                                    fps_source)\n\u001b[1;32m     37\u001b[0m         \u001b[0mself\u001b[0m\u001b[0;34m.\u001b[0m\u001b[0mfps\u001b[0m \u001b[0;34m=\u001b[0m \u001b[0minfos\u001b[0m\u001b[0;34m[\u001b[0m\u001b[0;34m'video_fps'\u001b[0m\u001b[0;34m]\u001b[0m\u001b[0;34m\u001b[0m\u001b[0;34m\u001b[0m\u001b[0m\n",
      "\u001b[0;32m~/opt/anaconda3/lib/python3.9/site-packages/moviepy/video/io/ffmpeg_reader.py\u001b[0m in \u001b[0;36mffmpeg_parse_infos\u001b[0;34m(filename, print_infos, check_duration, fps_source)\u001b[0m\n\u001b[1;32m    287\u001b[0m             \u001b[0mresult\u001b[0m\u001b[0;34m[\u001b[0m\u001b[0;34m'duration'\u001b[0m\u001b[0;34m]\u001b[0m \u001b[0;34m=\u001b[0m \u001b[0mcvsecs\u001b[0m\u001b[0;34m(\u001b[0m\u001b[0mmatch\u001b[0m\u001b[0;34m)\u001b[0m\u001b[0;34m\u001b[0m\u001b[0;34m\u001b[0m\u001b[0m\n\u001b[1;32m    288\u001b[0m         \u001b[0;32mexcept\u001b[0m\u001b[0;34m:\u001b[0m\u001b[0;34m\u001b[0m\u001b[0;34m\u001b[0m\u001b[0m\n\u001b[0;32m--> 289\u001b[0;31m             raise IOError((\"MoviePy error: failed to read the duration of file %s.\\n\"\n\u001b[0m\u001b[1;32m    290\u001b[0m                            \u001b[0;34m\"Here are the file infos returned by ffmpeg:\\n\\n%s\"\u001b[0m\u001b[0;34m)\u001b[0m\u001b[0;34m%\u001b[0m\u001b[0;34m(\u001b[0m\u001b[0;34m\u001b[0m\u001b[0;34m\u001b[0m\u001b[0m\n\u001b[1;32m    291\u001b[0m                               filename, infos))\n",
      "\u001b[0;31mOSError\u001b[0m: MoviePy error: failed to read the duration of file labeled/1.hevc.\nHere are the file infos returned by ffmpeg:\n\nffmpeg version 4.2.2 Copyright (c) 2000-2019 the FFmpeg developers\n  built with Apple clang version 11.0.0 (clang-1100.0.33.8)\n  configuration: --enable-gpl --enable-version3 --enable-sdl2 --enable-fontconfig --enable-gnutls --enable-iconv --enable-libass --enable-libdav1d --enable-libbluray --enable-libfreetype --enable-libmp3lame --enable-libopencore-amrnb --enable-libopencore-amrwb --enable-libopenjpeg --enable-libopus --enable-libshine --enable-libsnappy --enable-libsoxr --enable-libtheora --enable-libtwolame --enable-libvpx --enable-libwavpack --enable-libwebp --enable-libx264 --enable-libx265 --enable-libxml2 --enable-libzimg --enable-lzma --enable-zlib --enable-gmp --enable-libvidstab --enable-libvorbis --enable-libvo-amrwbenc --enable-libmysofa --enable-libspeex --enable-libxvid --enable-libaom --enable-appkit --enable-avfoundation --enable-coreimage --enable-audiotoolbox\n  libavutil      56. 31.100 / 56. 31.100\n  libavcodec     58. 54.100 / 58. 54.100\n  libavformat    58. 29.100 / 58. 29.100\n  libavdevice    58.  8.100 / 58.  8.100\n  libavfilter     7. 57.100 /  7. 57.100\n  libswscale      5.  5.100 /  5.  5.100\n  libswresample   3.  5.100 /  3.  5.100\n  libpostproc    55.  5.100 / 55.  5.100\nInput #0, hevc, from 'labeled/1.hevc':\n  Duration: N/A, bitrate: N/A\n    Stream #0:0: Video: hevc (Main), yuv420p(tv), 1164x874, 25 fps, 25 tbr, 1200k tbn, 25 tbc\nAt least one output file must be specified\n"
     ]
    }
   ],
   "source": [
    "# Load labeled videos and corresponding labels\n",
    "labeled_videos = ['labeled/1.hevc', 'labeled/2.hevc', 'labeled/3.hevc', 'labeled/4.hevc']\n",
    "labeled_labels = ['labeled/1.txt', 'labeled/2.txt', 'labeled/3.txt', 'labeled/4.txt']\n",
    "\n",
    "# Loop through labeled videos and corresponding labels\n",
    "for video_file, label_file in zip(labeled_videos, labeled_labels):\n",
    "    # Load video frames\n",
    "    video_frames = load_video_frames(video_file)\n",
    "    \n",
    "    # Load labels\n",
    "    labels = np.load(label_file)\n",
    "    \n",
    "    # Print shape of labels array\n",
    "    print(f\"Labels shape for {video_file}: {labels.shape}\")\n",
    "    \n",
    "    # Plot pitch and yaw angles for each frame\n",
    "    frame_indices = np.arange(len(labels))\n",
    "    pitch_angles = labels[:, 0]\n",
    "    yaw_angles = labels[:, 1]\n",
    "    \n",
    "    plt.figure(figsize=(12, 4))\n",
    "    plt.subplot(121)\n",
    "    plt.plot(frame_indices, pitch_angles)\n",
    "    plt.xlabel('Frame Index')\n",
    "    plt.ylabel('Pitch Angle')\n",
    "    plt.title('Pitch Angle Variation')\n",
    "    \n",
    "    plt.subplot(122)\n",
    "    plt.plot(frame_indices, yaw_angles)\n",
    "    plt.xlabel('Frame Index')\n",
    "    plt.ylabel('Yaw Angle')\n",
    "    plt.title('Yaw Angle Variation')\n",
    "    \n",
    "    plt.tight_layout()\n",
    "    plt.show()"
   ]
  },
  {
   "cell_type": "code",
   "execution_count": 9,
   "id": "e381dfd3",
   "metadata": {},
   "outputs": [
    {
     "name": "stdout",
     "output_type": "stream",
     "text": [
      "alias: body cannot be empty\n",
      "Collecting moviepy\n",
      "  Downloading moviepy-1.0.3.tar.gz (388 kB)\n",
      "\u001b[2K     \u001b[38;2;114;156;31m━━━━━━━━━━━━━━━━━━━━━━━━━━━━━━━━━━━━━━━\u001b[0m \u001b[32m388.3/388.3 kB\u001b[0m \u001b[31m1.2 MB/s\u001b[0m eta \u001b[36m0:00:00\u001b[0m[36m0:00:01\u001b[0mm eta \u001b[36m0:00:01\u001b[0m\n",
      "\u001b[?25h  Preparing metadata (setup.py) ... \u001b[?25ldone\n",
      "\u001b[?25hCollecting decorator<5.0,>=4.0.2\n",
      "  Downloading decorator-4.4.2-py2.py3-none-any.whl (9.2 kB)\n",
      "Requirement already satisfied: tqdm<5.0,>=4.11.2 in /Users/alhussien/opt/anaconda3/lib/python3.9/site-packages (from moviepy) (4.64.1)\n",
      "Requirement already satisfied: requests<3.0,>=2.8.1 in /Users/alhussien/opt/anaconda3/lib/python3.9/site-packages (from moviepy) (2.28.1)\n",
      "Collecting proglog<=1.0.0\n",
      "  Downloading proglog-0.1.10-py3-none-any.whl (6.1 kB)\n",
      "Requirement already satisfied: numpy>=1.17.3 in /Users/alhussien/opt/anaconda3/lib/python3.9/site-packages (from moviepy) (1.21.5)\n",
      "Requirement already satisfied: imageio<3.0,>=2.5 in /Users/alhussien/opt/anaconda3/lib/python3.9/site-packages (from moviepy) (2.19.3)\n",
      "Collecting imageio_ffmpeg>=0.2.0\n",
      "  Downloading imageio_ffmpeg-0.4.8-py3-none-macosx_10_9_intel.macosx_10_9_x86_64.macosx_10_10_intel.macosx_10_10_x86_64.whl (22.5 MB)\n",
      "\u001b[2K     \u001b[38;2;114;156;31m━━━━━━━━━━━━━━━━━━━━━━━━━━━━━━━━━━━━━━━\u001b[0m \u001b[32m22.5/22.5 MB\u001b[0m \u001b[31m370.4 kB/s\u001b[0m eta \u001b[36m0:00:00\u001b[0mm eta \u001b[36m0:00:01\u001b[0m[36m0:00:02\u001b[0m\n",
      "\u001b[?25hRequirement already satisfied: pillow>=8.3.2 in /Users/alhussien/opt/anaconda3/lib/python3.9/site-packages (from imageio<3.0,>=2.5->moviepy) (9.2.0)\n",
      "Requirement already satisfied: idna<4,>=2.5 in /Users/alhussien/opt/anaconda3/lib/python3.9/site-packages (from requests<3.0,>=2.8.1->moviepy) (3.3)\n",
      "Requirement already satisfied: certifi>=2017.4.17 in /Users/alhussien/opt/anaconda3/lib/python3.9/site-packages (from requests<3.0,>=2.8.1->moviepy) (2022.9.24)\n",
      "Requirement already satisfied: urllib3<1.27,>=1.21.1 in /Users/alhussien/opt/anaconda3/lib/python3.9/site-packages (from requests<3.0,>=2.8.1->moviepy) (1.26.11)\n",
      "Requirement already satisfied: charset-normalizer<3,>=2 in /Users/alhussien/opt/anaconda3/lib/python3.9/site-packages (from requests<3.0,>=2.8.1->moviepy) (2.0.4)\n",
      "Building wheels for collected packages: moviepy\n",
      "  Building wheel for moviepy (setup.py) ... \u001b[?25ldone\n",
      "\u001b[?25h  Created wheel for moviepy: filename=moviepy-1.0.3-py3-none-any.whl size=110728 sha256=cab8f5aa531369cb2608e2e33d988c1814b5d50cd17b895ce0fc143503a48379\n",
      "  Stored in directory: /Users/alhussien/Library/Caches/pip/wheels/29/15/e4/4f790bec6acd51a00b67e8ee1394f0bc6e0135c315f8ff399a\n",
      "Successfully built moviepy\n",
      "Installing collected packages: proglog, imageio_ffmpeg, decorator, moviepy\n",
      "  Attempting uninstall: decorator\n",
      "    Found existing installation: decorator 5.1.1\n",
      "    Uninstalling decorator-5.1.1:\n",
      "      Successfully uninstalled decorator-5.1.1\n",
      "Successfully installed decorator-4.4.2 imageio_ffmpeg-0.4.8 moviepy-1.0.3 proglog-0.1.10\n"
     ]
    }
   ],
   "source": [
    "!pip install moviepy"
   ]
  },
  {
   "cell_type": "code",
   "execution_count": 11,
   "id": "4a76562b",
   "metadata": {},
   "outputs": [],
   "source": [
    "def load_video_frames(video_file):\n",
    "    video = VideoFileClip(video_file)\n",
    "    frames = list(video.iter_frames())\n",
    "    video.close()\n",
    "    return frames"
   ]
  }
 ],
 "metadata": {
  "kernelspec": {
   "display_name": "Python 3 (ipykernel)",
   "language": "python",
   "name": "python3"
  },
  "language_info": {
   "codemirror_mode": {
    "name": "ipython",
    "version": 3
   },
   "file_extension": ".py",
   "mimetype": "text/x-python",
   "name": "python",
   "nbconvert_exporter": "python",
   "pygments_lexer": "ipython3",
   "version": "3.9.13"
  }
 },
 "nbformat": 4,
 "nbformat_minor": 5
}
